<?xml version="1.0" standalone="no"?>
<!DOCTYPE svg PUBLIC "-//W3C//DTD SVG 20010904//EN"
 "http://www.w3.org/TR/2001/REC-SVG-20010904/DTD/svg10.dtd">
<svg version="1.0" xmlns="http://www.w3.org/2000/svg"
 width="434.000000pt" height="434.000000pt" viewBox="0 0 434.000000 434.000000"
 preserveAspectRatio="xMidYMid meet">
<metadata>
Created by potrace 1.14, written by Peter Selinger 2001-2017
</metadata>
<g transform="translate(0.000000,434.000000) scale(0.100000,-0.100000)"
fill="#000000" stroke="none">
<path d="M1960 4329 c-25 -4 -61 -9 -80 -12 -78 -13 -251 -71 -346 -117 -248
-120 -465 -312 -616 -546 -85 -132 -174 -358 -194 -494 -3 -19 -7 -41 -9 -48
-8 -23 -19 -174 -19 -252 2 -309 108 -619 296 -868 35 -46 64 -101 93 -178 63
-167 66 -183 64 -434 -2 -218 5 -290 33 -344 39 -76 98 -88 154 -32 19 19 34
42 35 53 0 10 2 26 4 35 2 10 -3 46 -12 80 -8 35 -17 73 -19 85 -2 12 -17 61
-33 110 -54 167 -50 219 18 228 81 10 204 -103 215 -197 5 -38 9 -102 22 -358
10 -201 0 -478 -21 -589 -21 -108 -26 -182 -16 -213 25 -74 116 -104 180 -58
63 44 77 126 39 240 -32 98 -32 297 0 400 31 96 41 81 59 -80 8 -66 8 -136 2
-483 l-4 -199 33 -29 c33 -30 57 -33 103 -15 59 24 73 178 34 383 -44 236 -48
410 -14 607 6 33 10 108 10 168 -1 128 11 162 66 185 26 11 53 13 97 8 34 -4
72 -8 86 -10 14 -1 47 3 75 10 36 10 52 10 57 2 4 -6 5 -14 2 -18 -2 -4 -6
-24 -10 -44 -3 -21 -8 -46 -10 -56 -2 -11 -6 -27 -8 -37 -14 -63 -17 -146 -6
-172 22 -53 122 -63 168 -17 28 28 30 49 19 222 -9 135 -2 160 48 184 44 21
144 40 151 29 3 -5 7 -36 8 -68 3 -74 23 -100 76 -100 47 0 81 27 86 66 1 16
-4 57 -14 91 -21 81 -11 113 38 126 19 5 49 19 65 31 17 13 54 40 84 61 30 20
71 55 92 76 74 75 114 38 94 -86 -4 -22 -17 -80 -30 -129 -34 -138 -16 -244
49 -275 25 -12 33 -11 62 2 65 32 95 133 69 242 -7 32 -12 139 -13 275 l-1
223 44 94 c25 51 45 94 44 96 0 1 15 36 34 77 97 213 137 414 132 655 -15 713
-554 1316 -1265 1414 -76 11 -334 11 -400 0z m240 -228 c0 -4 -44 -34 -97 -66
-249 -148 -472 -324 -724 -570 -118 -116 -158 -178 -183 -290 -27 -121 -44
-220 -39 -232 10 -26 107 -31 140 -8 12 8 27 32 33 53 26 79 84 185 132 237
28 30 54 55 59 55 18 0 21 -31 5 -49 -11 -12 -15 -29 -12 -47 3 -16 7 -58 11
-94 3 -36 8 -87 11 -115 2 -27 7 -75 10 -105 2 -30 7 -73 9 -95 2 -22 7 -65
10 -95 2 -30 9 -100 15 -155 5 -55 12 -127 15 -160 3 -33 8 -78 10 -100 3 -22
7 -67 10 -100 5 -55 12 -124 20 -200 2 -16 6 -65 10 -107 l7 -77 -69 21 c-134
40 -190 77 -283 187 -205 244 -299 417 -346 644 -24 116 -24 436 0 475 2 4 7
24 10 44 9 57 54 185 93 263 184 368 551 634 937 679 27 3 50 7 52 8 6 7 154
5 154 -1z m582 -163 c102 -62 164 -111 256 -204 158 -161 269 -356 317 -561 9
-37 19 -77 22 -88 3 -11 7 -94 9 -185 3 -179 -7 -255 -52 -394 -48 -151 -74
-194 -170 -290 -114 -113 -222 -211 -304 -275 -36 -28 -86 -70 -112 -93 -87
-77 -166 -110 -360 -147 -51 -9 -115 -16 -143 -15 -55 2 -233 14 -280 19 -16
1 -39 3 -49 4 -31 2 68 71 209 146 22 12 81 43 130 70 50 26 117 64 150 83
204 121 390 307 484 484 24 45 79 182 79 198 0 3 3 31 7 62 12 100 13 151 4
223 -27 200 -163 315 -377 315 l-73 0 41 73 c109 191 155 312 163 425 4 52 -5
131 -18 165 -10 25 8 21 67 -15z m-594 -142 c98 -51 152 -224 116 -377 -28
-121 -103 -233 -209 -314 -45 -34 -104 -65 -109 -57 -2 4 -7 57 -10 117 -4 61
-8 130 -11 155 -2 25 -7 77 -10 115 -7 83 -14 156 -21 207 -6 46 16 101 50
123 62 41 158 55 204 31z m261 -783 c65 -48 102 -178 96 -333 -9 -234 -146
-452 -366 -583 -35 -20 -69 -37 -76 -37 -8 0 -13 14 -14 38 0 20 -2 46 -4 57
-2 11 -7 54 -10 95 -4 41 -8 86 -10 100 -2 14 -6 54 -10 90 -3 36 -10 99 -16
140 -24 158 -5 246 59 287 15 10 67 46 116 81 134 96 176 108 235 65z"/>
</g>
</svg>
